Coordinates
version=1
nRows=19
nColumns=24
inDegrees=yes

Units are S.I. units (second, meters, Newtons, ...)
Angles are in degrees.

endheader
time	pelvis_tilt	pelvis_list	pelvis_rotation	pelvis_tx	pelvis_ty	pelvis_tz	hip_flexion_r	hip_adduction_r	hip_rotation_r	knee_angle_r	ankle_angle_r	subtalar_angle_r	mtp_angle_r	hip_flexion_l	hip_adduction_l	hip_rotation_l	knee_angle_l	ankle_angle_l	subtalar_angle_l	mtp_angle_l	lumbar_extension	lumbar_bending	lumbar_rotation
      3.64500000	    -13.61740956	      3.49208901	    -15.68101658	      1.84826527	     -0.03937276	     -0.38294119	     -4.69601109	     -1.48194538	      7.99149588	     -9.24531567	      5.18457144	     11.27579472	     16.49955976	     39.61792110	     -5.44446506	    -22.26643576	     -3.62611761	    -13.92445012	     11.29992860	     14.84073964	     12.51978423	     -1.17136378	     12.44995776
      3.65000000	    -13.64479204	      3.49019396	    -15.87738774	      1.85483853	     -0.04029782	     -0.38286521	     -4.85684272	     -1.61342091	      7.99231621	     -9.54528600	      4.98298183	     11.64165170	     16.67126245	     39.78524070	     -5.62677574	    -22.36694541	     -4.17635241	    -13.72326657	     11.06646799	     14.75870581	     12.56734543	     -1.18687560	     12.48947307
      3.65500000	    -13.66543033	      3.49625988	    -16.07645678	      1.86149627	     -0.04120621	     -0.38280200	     -5.01689156	     -1.76257496	      8.00070744	     -9.85446617	      4.75359075	     12.02087323	     16.84440999	     39.93194217	     -5.79816724	    -22.41869415	     -4.77709469	    -13.54378873	     10.79838098	     14.67285452	     12.61632264	     -1.20610936	     12.53839230
      3.66000000	    -13.72259778	      3.54360809	    -16.23202062	      1.86836397	     -0.04216810	     -0.38281180	     -5.13084474	     -1.96044991	      7.88289192	    -10.16665282	      4.49657458	     12.54483554	     17.20797224	     40.10715148	     -5.89927783	    -22.40919333	     -5.41503189	    -13.35560285	     10.46460880	     14.42709155	     12.73847423	     -1.26685314	     12.53472559
      3.66500000	    -13.69538280	      3.51873664	    -16.43810322	      1.87515245	     -0.04299259	     -0.38271463	     -5.34729026	     -2.09282995	      7.97255667	    -10.48171302	      4.18929121	     12.83090424	     17.29904934	     40.15823120	     -6.08152894	    -22.42556310	     -6.06550630	    -13.22508267	     10.23033353	     14.44197521	     12.73729928	     -1.27592302	     12.59586282
      3.67000000	    -13.71805867	      3.58731360	    -16.62489221	      1.88218010	     -0.04386908	     -0.38274517	     -5.46754763	     -2.34051594	      7.85474534	    -10.82669477	      3.87487823	     13.42905820	     17.64325219	     40.23762280	     -6.15348644	    -22.43984658	     -6.69290976	    -13.13805149	      9.91099588	     14.29575369	     12.83966340	     -1.34171131	     12.66893454
      3.67500000	    -13.68983284	      3.56769885	    -16.83324556	      1.88911838	     -0.04464140	     -0.38272328	     -5.65419528	     -2.49307406	      7.92689714	    -11.18895209	      3.50400234	     13.77306085	     17.75038666	     40.23158720	     -6.30544878	    -22.46957975	     -7.31979041	    -13.10315565	      9.69765387	     14.30812858	     12.84487361	     -1.34257056	     12.72188179
      3.68000000	    -13.68395077	      3.67622352	    -17.00096047	      1.89636760	     -0.04545703	     -0.38279147	     -5.77759705	     -2.80389565	      7.71883707	    -11.56338524	      3.13066741	     14.44160213	     18.17214327	     40.22278701	     -6.29627132	    -22.54424160	     -7.88023905	    -13.19174461	      9.39057966	     14.28011462	     12.95122208	     -1.46185471	     12.78076371
      3.68500000	    -13.65852561	      3.74653916	    -17.18994330	      1.90358635	     -0.04616544	     -0.38284703	     -5.91438934	     -3.07523352	      7.62761487	    -11.95268665	      2.67412162	     14.97771811	     18.52871212	     40.15857431	     -6.32084980	    -22.65169116	     -8.39863483	    -13.42731020	      9.09005678	     14.33084032	     13.01622753	     -1.54150593	     12.86947256
      3.69000000	    -13.62965697	      3.83679779	    -17.35549058	      1.91087933	     -0.04684724	     -0.38296300	     -6.03905503	     -3.37311554	      7.49705211	    -12.36058691	      2.20074165	     15.54065311	     18.87526431	     40.08138340	     -6.29997272	    -22.80187913	     -8.88531426	    -13.83378285	      8.72866217	     14.44722036	     13.08650690	     -1.64482966	     12.94441044
      3.69500000	    -13.59697860	      3.95159772	    -17.51463595	      1.91824218	     -0.04744772	     -0.38309643	     -6.14113543	     -3.70152494	      7.33143981	    -12.79438929	      1.66799992	     16.12749612	     19.23458666	     39.97555756	     -6.23812862	    -22.96631405	     -9.30726924	    -14.46087390	      8.26265811	     14.61028739	     13.16683822	     -1.77438778	     13.02043809
      3.70000000	    -13.55177115	      4.08270126	    -17.65530083	      1.92559559	     -0.04796649	     -0.38328139	     -6.22004035	     -4.05134519	      7.13269160	    -13.27343515	      1.09842217	     16.72246846	     19.63717838	     39.85179146	     -6.13521803	    -23.12361138	     -9.68644130	    -15.31693943	      7.65926124	     14.81806738	     13.23247951	     -1.92804965	     13.05359899
      3.70500000	    -13.51818196	      4.24710377	    -17.78544862	      1.93301833	     -0.04840860	     -0.38349042	     -6.26397556	     -4.43389007	      6.92889225	    -13.76629874	      0.47056435	     17.31415805	     19.98733693	     39.74513439	     -5.99100255	    -23.27207257	    -10.05820800	    -16.31286103	      6.92893413	     14.96197911	     13.32660045	     -2.10832625	     13.14210284
      3.71000000	    -13.47007244	      4.43610975	    -17.90629098	      1.94040507	     -0.04873906	     -0.38372911	     -6.27023306	     -4.84624409	      6.68043158	    -14.32290320	     -0.20433029	     17.92642472	     20.37712621	     39.62758071	     -5.80301412	    -23.33830247	    -10.41127417	    -17.44202226	      6.02676041	     15.07858568	     13.40679978	     -2.32482632	     13.17872261
      3.71500000	    -13.43197752	      4.66392932	    -17.99690668	      1.94783948	     -0.04898217	     -0.38401160	     -6.23844435	     -5.29496533	      6.41228592	    -14.89962251	     -0.94436119	     18.52864477	     20.72165386	     39.54615511	     -5.55748002	    -23.32171863	    -10.80220490	    -18.56773461	      5.03198484	     15.05017908	     13.51235840	     -2.58152900	     13.25127774
      3.72000000	    -13.38203075	      4.91962241	    -18.07726837	      1.95523043	     -0.04911023	     -0.38431629	     -6.16064861	     -5.77506835	      6.09928693	    -15.54610873	     -1.74422218	     19.13656558	     21.10256723	     39.47154741	     -5.26692677	    -23.17423059	    -11.22483722	    -19.63511349	      3.93220760	     14.89197613	     13.60637325	     -2.87410951	     13.27205569
      3.72500000	    -13.34321356	      5.22036097	    -18.15926957	      1.96267878	     -0.04913551	     -0.38460257	     -6.03069861	     -6.29924009	      5.79465072	    -16.22029125	     -2.63380465	     19.73702966	     21.42324845	     39.42733927	     -4.93328654	    -22.91791612	    -11.70240795	    -20.51958563	      2.81995493	     14.55647531	     13.74056870	     -3.20473243	     13.35935264
      3.73000000	    -13.29078588	      5.53029938	    -18.17006671	      1.97006293	     -0.04907590	     -0.38499932	     -5.87805489	     -6.83815500	      5.37125090	    -16.94755760	     -3.59905193	     20.37102839	     21.83215875	     39.41574688	     -4.53272811	    -22.49818826	    -12.25743363	    -21.24641500	      1.66075842	     14.07643945	     13.84052226	     -3.57201625	     13.36334751
      3.73500000	    -13.23604859	      5.86086440	    -18.16771612	      1.97741736	     -0.04892213	     -0.38541495	     -5.67486955	     -7.40241790	      4.90357677	    -17.73151921	     -4.67290213	     21.00455300	     22.31401463	     39.42567245	     -4.09861792	    -21.99963338	    -12.87613406	    -21.72535207	      0.55756384	     13.46156070	     13.94098533	     -3.96475505	     13.36409450
